# xmcd
#
# Track frame offsets: 
#        150
#        18315
#        40988
#        69026
#        86633
#        108378
#        141250
#        160225
#        177815
#        192858
#        213433
#        233208
#        255021
#        270713
#        289878
#
# Disc length: 4135 seconds
#
# Revision: 0
# Processed by: cddbd v1.5.1PL2 Copyright (c) Steve Scherf et al.
# Submitted via: ExactAudioCopy v0.95b3
#
DISCID=ca10250f
DTITLE=Steve Hall - Hallways
DYEAR=2005
DGENRE=Blues
TTITLE0=A Blues Man Needs A Woman
TTITLE1=If This Is Love
TTITLE2=Hallways
TTITLE3=Hole In My Heart
TTITLE4=Soul Poison
TTITLE5=Got Every Thing I Need
TTITLE6=I Like Some Be-Bop (in my blues)
TTITLE7=Dream Chaser
TTITLE8=Red Headed Woman
TTITLE9=Till I Found You (in his bed)
TTITLE10=Was Late One Night
TTITLE11=And She's Not Like You
TTITLE12=Worried Mama Blues
TTITLE13=A Long, Long While
TTITLE14=Dilly
EXTD=
EXTT0=
EXTT1=
EXTT2=
EXTT3=
EXTT4=
EXTT5=
EXTT6=
EXTT7=
EXTT8=
EXTT9=
EXTT10=
EXTT11=
EXTT12=
EXTT13=
EXTT14=
PLAYORDER=
